<?xml version="1.0" standalone="no"?>
<!DOCTYPE svg PUBLIC "-//W3C//DTD SVG 20010904//EN"
 "http://www.w3.org/TR/2001/REC-SVG-20010904/DTD/svg10.dtd">
<svg version="1.0" xmlns="http://www.w3.org/2000/svg"
 width="1245.000000pt" height="971.000000pt" viewBox="0 0 1245.000000 971.000000"
 preserveAspectRatio="xMidYMid meet">

<g transform="translate(0.000000,971.000000) scale(0.100000,-0.100000)"
fill="#000000" stroke="none">
<path d="M6149 8628 c-115 -185 -369 -582 -671 -1048 -91 -140 -220 -343 -288
-450 -68 -107 -170 -267 -228 -355 -58 -88 -191 -295 -297 -460 -105 -165
-281 -437 -390 -605 -109 -168 -295 -456 -413 -640 -118 -184 -263 -409 -322
-500 -59 -91 -159 -246 -222 -345 -63 -99 -199 -310 -303 -470 -103 -159 -244
-378 -313 -485 -107 -166 -195 -304 -493 -765 l-39 -60 4017 -3 c2209 -1 4018
-1 4020 1 3 4 -14 31 -290 458 -95 146 -208 321 -252 390 -43 68 -147 230
-231 359 -83 129 -212 330 -286 445 -150 233 -462 718 -631 980 -109 168 -213
330 -587 910 -106 165 -236 368 -288 450 -53 83 -150 233 -217 335 -66 102
-170 262 -230 355 -60 94 -227 352 -370 575 -144 223 -306 475 -360 560 -191
302 -268 420 -275 420 -5 0 -23 -24 -41 -52z m5 -622 l-7 -246 -150 0 c-122 0
-148 2 -144 14 10 25 300 486 304 482 2 -2 1 -114 -3 -250z m247 -211 c1 -104
2 -335 3 -513 l3 -323 32 -33 c80 -83 43 -196 -65 -196 -98 0 -147 113 -83
194 11 14 27 26 35 26 14 0 19 260 15 895 l-1 210 30 -35 30 -34 1 -191z
m-249 -216 c1 -28 1 -53 -1 -55 -8 -7 -463 -4 -459 4 2 4 17 28 33 55 l30 47
196 0 197 0 4 -51z m548 -258 l0 -216 34 -23 c85 -58 39 -202 -64 -202 -48 0
-98 37 -106 78 -10 53 4 100 36 124 l30 22 0 255 1 256 34 -39 35 -39 0 -216z
m-546 50 c4 -22 3 -48 -3 -83 -1 -9 -611 -11 -611 -3 0 3 17 30 37 61 l36 55
268 -2 268 -1 5 -27z m-1 -223 c2 -7 2 -36 0 -65 l-5 -51 -384 1 c-211 1 -384
5 -384 8 0 4 15 29 33 57 25 39 39 51 62 54 17 2 175 5 351 6 254 2 323 0 327
-10z m843 -142 c4 -36 3 -105 -1 -153 l-7 -87 -146 -148 c-80 -81 -149 -154
-153 -160 -5 -10 -17 -123 -19 -174 0 -6 -13 -9 -30 -6 l-30 4 0 95 0 95 62
66 c34 37 105 110 156 163 l94 97 2 171 1 171 32 -34 c28 -29 34 -44 39 -100z
m-1255 -96 l410 0 -3 -57 -3 -58 -462 -3 c-255 -1 -463 1 -463 5 0 8 46 78 69
106 8 10 21 15 29 12 7 -3 198 -5 423 -5z m987 -138 c2 -7 -3 -12 -12 -12 -9
0 -16 7 -16 16 0 17 22 14 28 -4z m-199 -198 l-119 -121 0 -72 0 -72 -35 3
-35 2 0 79 0 78 131 139 130 140 24 -28 24 -27 -120 -121z m-371 86 c1 0 2
-25 2 -55 l0 -55 -543 0 c-299 0 -546 3 -549 6 -4 3 12 31 35 61 l42 56 505
-6 c278 -3 506 -6 508 -7z m1105 -41 c18 -20 16 -23 -131 -174 -107 -109 -157
-167 -173 -204 -26 -55 -29 -57 -78 -40 -36 13 -38 23 -12 64 23 36 352 372
366 374 6 0 19 -8 28 -20z m-1105 -247 c3 -50 2 -53 -18 -47 -11 3 -69 -1
-128 -10 -93 -14 -177 -16 -600 -13 -270 2 -494 7 -497 10 -4 3 10 31 30 62
l36 56 587 -2 587 -3 3 -53z m1270 11 c14 -28 6 -40 -101 -158 -140 -153 -133
-148 -168 -130 -16 9 -29 23 -29 33 0 9 59 71 130 136 72 66 130 123 130 128
0 15 29 8 38 -9z m-2022 -212 c-4 -5 -25 -16 -49 -24 -23 -9 -80 -31 -127 -51
l-85 -36 -192 0 c-113 0 -193 4 -193 9 0 5 14 32 31 60 l32 51 294 0 c173 0
292 -4 289 -9z m2170 -16 c16 -12 17 -16 5 -24 -11 -7 -10 -10 5 -14 17 -4 17
-5 -2 -6 -21 -1 -48 -24 -39 -32 2 -3 -21 -31 -53 -62 -55 -55 -58 -56 -80
-41 -12 8 -22 20 -22 26 0 11 149 168 160 168 3 0 15 -7 26 -15z m-1068 -50
c144 -24 353 -84 467 -135 22 -10 69 -30 105 -45 127 -53 298 -150 480 -273
243 -164 282 -196 524 -433 l206 -201 -22 -31 c-48 -67 -342 -357 -473 -466
-239 -200 -398 -307 -614 -416 -566 -285 -1169 -312 -1745 -78 -60 24 -138 58
-174 75 -91 42 -358 202 -466 279 -102 73 -358 289 -464 393 -89 87 -212 229
-212 246 0 6 63 74 140 150 217 214 615 525 840 657 253 148 667 279 935 297
112 7 380 -4 473 -19z m-1588 -174 c0 -5 -9 -12 -20 -16 -10 -3 -49 -26 -84
-51 -63 -43 -68 -44 -141 -44 -42 0 -75 3 -73 8 2 4 17 31 33 59 l30 53 128 0
c72 0 127 -4 127 -9z m2814 -17 l19 -26 -41 -41 c-40 -40 -41 -40 -66 -23 -14
9 -26 20 -26 24 0 10 78 92 87 92 5 0 16 -12 27 -26z m-3156 -223 c-5 -13
-119 -103 -124 -98 -3 2 6 17 19 33 13 16 29 39 36 52 8 15 21 22 42 22 17 0
29 -4 27 -9z m-416 -1009 c31 -26 57 -50 57 -54 1 -5 -89 -8 -199 -8 -110 0
-200 2 -200 5 0 3 7 17 15 30 50 83 33 75 158 75 l112 0 57 -48z m4276 32 c12
-8 29 -28 37 -45 13 -24 22 -29 51 -29 33 0 35 -2 32 -27 -2 -22 -10 -29 -36
-34 -18 -4 -43 -16 -56 -28 -75 -70 -190 -32 -203 68 -4 32 -2 42 11 47 9 3
16 11 16 17 0 6 7 19 17 29 21 23 99 25 131 2z m-262 -274 l72 -70 240 0 241
0 15 -32 c9 -17 16 -33 16 -35 0 -1 -119 -3 -265 -3 l-266 0 -89 86 c-50 48
-90 90 -90 94 0 6 36 27 49 29 3 1 37 -30 77 -69z m-3753 0 c37 -30 67 -57 67
-60 0 -5 -812 -1 -818 5 -2 2 12 27 30 57 l35 53 309 0 309 0 68 -55z m3673
-297 l61 -63 186 0 c103 -1 188 -4 191 -8 2 -4 -35 -7 -82 -7 -88 0 -191 -10
-142 -14 14 -1 42 -3 63 -5 21 -2 40 1 43 6 3 4 10 8 15 8 6 0 7 -5 4 -10 -4
-7 17 -10 60 -9 36 1 68 6 71 10 3 5 12 9 20 9 8 0 13 -4 10 -8 -3 -5 1 -9 9
-9 8 0 17 7 19 14 3 8 2 12 -2 9 -4 -2 -23 -1 -42 4 -23 5 28 9 149 11 l183 4
9 -23 c5 -13 7 -27 5 -31 -3 -4 -186 -6 -408 -5 l-403 1 -137 128 c-76 70
-138 132 -138 139 0 6 12 19 27 28 l28 17 70 -66 c38 -37 97 -95 131 -130z
m-3353 50 l86 -58 -656 -3 c-361 -1 -658 0 -660 2 -3 2 12 27 32 55 44 61 -19
55 636 59 l475 4 87 -59z m2991 -80 c34 -31 120 -114 193 -185 l131 -128 500
0 500 0 44 -49 c38 -42 84 -108 206 -297 12 -19 22 -38 22 -41 0 -3 -35 29
-77 71 l-78 77 -15 -23 c-8 -13 -35 -45 -59 -71 l-45 -48 60 -62 c33 -34 71
-75 84 -92 l25 -30 -25 20 c-14 11 -30 24 -35 30 -53 52 -73 66 -80 54 -5 -7
-4 -10 2 -6 13 8 88 -72 77 -81 -4 -4 -9 -1 -11 6 -3 6 -10 12 -17 12 -7 0
-38 26 -69 58 -31 31 -63 63 -72 70 -21 18 -11 33 74 117 39 39 71 75 71 80 0
6 -34 43 -76 84 l-77 73 -73 -1 c-41 -1 -74 3 -74 8 0 5 38 8 85 6 47 -1 85 2
85 6 0 9 -21 10 -135 10 -127 0 -159 -2 -148 -9 6 -4 32 -7 57 -6 25 1 46 -2
46 -7 0 -8 -228 -11 -643 -9 -133 1 -161 4 -179 18 -47 38 -120 103 -256 231
l-142 134 27 19 c16 10 30 18 32 18 2 0 32 -26 65 -57z m-109 -269 c120 -117
167 -168 140 -153 l-40 23 19 -22 c13 -15 15 -22 6 -22 -10 0 -10 -3 0 -15 7
-8 16 -12 21 -9 5 3 8 0 7 -8 -2 -7 3 -12 10 -10 6 1 11 -1 10 -5 -2 -5 1 -9
6 -10 5 -1 15 -16 23 -35 10 -24 16 -29 22 -19 6 9 11 10 15 2 4 -6 3 -11 -3
-11 -6 0 -8 -6 -5 -12 2 -7 -63 53 -146 133 -118 114 -149 150 -144 165 4 14
3 15 -4 6 -7 -11 -19 -5 -53 26 -24 21 -63 56 -86 77 -24 20 -43 41 -43 45 0
8 39 28 55 29 6 0 91 -79 190 -175z m-2478 109 c67 -32 122 -61 122 -65 1 -5
-431 -8 -959 -8 -528 0 -960 3 -960 6 0 3 15 30 32 60 l33 54 315 2 c173 2
536 4 805 6 l490 3 122 -58z m2142 -130 c51 -55 67 -79 59 -85 -10 -6 -10 -10
2 -18 12 -8 12 -10 1 -10 -11 0 -11 -3 -1 -15 7 -8 16 -12 21 -9 5 3 9 -2 9
-10 0 -18 2 -19 24 -10 9 3 13 10 10 15 -3 5 -1 9 3 9 5 0 38 -30 74 -67 l66
-68 3 -230 c4 -280 5 -373 2 -536 l-2 -126 -32 1 -33 1 4 153 c1 85 -3 282
-10 439 l-13 286 -41 41 c-23 23 -98 95 -168 160 -70 65 -127 123 -127 127 0
7 45 25 72 28 3 1 38 -34 77 -76z m-389 -67 c0 -6 4 -5 9 2 7 12 12 12 30 1
11 -8 21 -21 21 -31 0 -9 5 -20 10 -23 15 -9 12 -22 -5 -22 -9 0 -14 6 -11 13
3 8 1 16 -4 19 -4 3 -10 0 -12 -5 -2 -6 -18 4 -36 23 -22 23 -28 34 -17 34 8
0 15 -5 15 -11z m-1180 -26 c141 -32 282 -54 413 -65 42 -4 77 -11 77 -16 0
-13 -384 -16 -1520 -13 -564 2 -1132 3 -1262 4 l-238 0 34 53 c33 51 34 52 92
57 33 3 556 7 1164 8 l1105 3 135 -31z m1055 -52 l47 -43 5 -86 6 -87 64 -68
c83 -89 126 -153 119 -179 -3 -11 -6 -142 -6 -291 l0 -271 -30 -1 -30 -1 0
294 0 294 -76 88 c-42 48 -81 93 -88 98 -6 6 -12 45 -13 90 l-2 80 -62 57
c-50 46 -58 57 -43 61 45 11 64 5 109 -35z m230 32 c3 -5 1 -10 -4 -10 -6 0
-11 5 -11 10 0 6 2 10 4 10 3 0 8 -4 11 -10z m30 -30 c3 -5 1 -10 -4 -10 -6 0
-11 5 -11 10 0 6 2 10 4 10 3 0 8 -4 11 -10z m-570 -117 c-8 -130 -8 -118 1
-519 7 -365 4 -398 -34 -392 -9 2 -20 8 -24 13 -9 12 -10 939 -1 973 4 16 12
22 34 22 l30 0 -6 -97z m600 47 c3 -5 1 -10 -4 -10 -6 0 -11 5 -11 10 0 6 2
10 4 10 3 0 8 -4 11 -10z m95 -50 c6 0 10 -4 10 -10 0 -17 -18 -11 -44 15 -20
20 -25 22 -28 8 -3 -14 -5 -14 -18 2 -9 11 -10 16 -2 11 7 -4 15 -1 18 9 6 14
10 13 31 -9 13 -14 28 -26 33 -26z m1414 28 c14 -6 33 -22 41 -35 22 -33 36
-115 23 -131 -6 -7 -8 -15 -5 -18 9 -9 28 6 22 17 -13 20 14 7 56 -28 56 -47
124 -109 329 -303 203 -192 285 -268 373 -344 l68 -60 70 1 c38 0 69 -4 69 -8
0 -5 -6 -9 -12 -10 -7 0 -60 -3 -116 -5 l-104 -5 -119 118 c-66 65 -115 119
-109 121 6 2 17 -1 24 -7 10 -9 15 -8 19 3 3 8 -1 13 -10 12 -9 0 -18 5 -21
13 -3 8 0 11 7 7 6 -4 11 -2 11 5 0 7 -8 9 -21 6 -15 -4 -19 -2 -15 8 3 8 1
17 -4 20 -5 3 -7 -8 -5 -25 5 -39 -5 -38 -44 5 -17 19 -26 35 -19 35 9 0 9 3
0 12 -10 10 -15 10 -21 -1 -6 -9 -11 -10 -15 -2 -4 6 2 16 14 23 24 15 25 24
4 32 -8 3 -13 2 -10 -2 3 -4 -4 -14 -16 -21 -16 -10 -19 -10 -12 1 14 22 15
48 2 45 -7 -1 -12 3 -13 8 -1 21 -38 52 -56 48 -10 -3 -16 -10 -13 -15 3 -5
13 -7 22 -3 9 3 13 3 10 -1 -4 -3 4 -18 18 -32 13 -15 24 -31 24 -37 0 -5 -5
-3 -10 5 -5 8 -10 12 -10 8 0 -4 -24 15 -52 41 -29 27 -107 97 -173 157 -66
60 -128 117 -137 128 -15 15 -22 17 -49 7 -75 -26 -131 -10 -172 48 -16 25
-18 25 -204 28 -255 4 -246 2 -250 36 l-4 27 108 1 c150 2 304 5 330 7 12 1
24 10 27 20 14 43 96 65 150 40z m-1342 -31 c-12 -7 -20 -15 -18 -18 3 -3 -4
-5 -15 -5 -10 0 -17 5 -15 11 2 5 9 9 15 8 6 -2 11 2 11 7 0 6 10 10 23 10
l22 -1 -23 -12z m-7 -37 c78 0 106 -10 120 -43 15 -36 5 -73 -19 -69 -19 3
-22 -14 -3 -21 21 -7 -22 -46 -60 -53 -75 -14 -136 43 -132 124 2 26 8 50 13
54 7 5 5 8 -5 8 -9 0 -19 7 -23 15 -5 13 -1 13 31 0 19 -8 55 -15 78 -15z m35
26 c0 -2 -7 -6 -15 -10 -8 -3 -15 -1 -15 4 0 6 7 10 15 10 8 0 15 -2 15 -4z
m46 -11 c10 -8 14 -15 7 -15 -6 0 -15 5 -18 10 -4 6 -11 8 -16 5 -5 -4 -9 -1
-9 4 0 15 13 14 36 -4z m-1096 -85 l0 -60 -1585 0 c-1034 0 -1585 3 -1585 10
0 5 14 32 31 60 l31 50 1554 0 1554 0 0 -60z m1710 30 c4 0 9 -55 12 -123 2
-67 7 -128 11 -135 6 -9 76 -12 293 -12 l286 0 83 -77 c45 -43 83 -81 84 -84
2 -12 -53 -31 -57 -20 -2 6 -9 11 -14 11 -6 0 -37 25 -68 54 l-57 55 -296 1
c-290 0 -296 0 -302 -20 -6 -19 -13 -21 -83 -18 l-77 3 -8 69 c-6 44 -17 83
-33 107 -28 45 -28 45 -9 53 20 7 81 -20 89 -39 3 -9 6 -38 6 -63 0 -89 19
-110 71 -82 17 10 19 23 19 164 0 84 3 156 7 160 4 3 13 4 21 1 7 -3 17 -5 22
-5z m-1710 -275 l0 -65 -1567 2 c-863 1 -1612 4 -1665 6 l-98 3 30 52 30 52
127 5 c71 4 806 7 1636 8 l1507 2 0 -65z m560 40 c33 -17 66 -70 50 -80 -6 -3
-10 2 -10 11 0 19 -27 54 -42 54 -5 0 -7 -4 -4 -9 4 -5 3 -11 -1 -14 -5 -2 -2
-2 5 -1 6 2 12 -4 12 -14 0 -10 12 -26 28 -36 15 -9 19 -15 10 -12 -10 3 -18
0 -19 -7 0 -7 -3 -6 -6 3 -10 25 -57 60 -80 60 -32 0 -58 -42 -43 -69 14 -28
38 -39 77 -36 18 2 31 -1 28 -6 -3 -4 -12 -6 -20 -2 -8 3 -15 1 -15 -4 0 -13
32 -13 48 0 7 6 10 17 7 26 -3 8 -3 12 1 8 4 -4 14 -1 22 6 13 10 13 7 -1 -18
-8 -16 -29 -39 -46 -50 -29 -19 -31 -24 -31 -82 0 -43 -4 -63 -12 -64 -7 0 -8
-2 -3 -5 13 -5 7 -235 -6 -248 -6 -6 -9 -6 -9 2 0 6 -7 9 -15 6 -13 -5 -15 11
-15 107 0 63 -3 148 -7 189 -5 67 -9 79 -39 113 -41 44 -44 80 -11 128 38 57
91 73 147 44z m2580 -159 c0 -3 -4 -8 -10 -11 -5 -3 -10 -1 -10 4 0 6 5 11 10
11 6 0 10 -2 10 -4z m-2166 -67 c-3 -5 -9 -7 -14 -4 -5 3 -13 -3 -19 -12 -6
-10 -11 -14 -11 -9 0 15 32 46 41 40 5 -3 7 -10 3 -15z m46 11 c0 -5 -8 -10
-17 -10 -15 0 -16 2 -3 10 19 12 20 12 20 0z m45 0 c-3 -6 1 -13 9 -16 9 -3
16 -11 16 -17 0 -5 -9 -2 -20 8 -22 20 -26 35 -9 35 5 0 7 -5 4 -10z m1435 0
c0 -5 -4 -10 -10 -10 -5 0 -10 5 -10 10 0 6 5 10 10 10 6 0 10 -4 10 -10z m8
-24 c14 5 14 4 -1 -6 -13 -8 -22 -9 -29 -2 -6 6 -18 8 -27 4 -14 -5 -14 -3 -3
11 12 14 16 15 28 2 8 -8 22 -12 32 -9z m868 -10 c25 -25 34 -43 34 -67 0 -73
-64 -128 -133 -115 -63 12 -96 74 -82 158 5 29 10 35 23 31 11 -5 12 -8 4 -11
-10 -3 -10 -7 -1 -18 8 -10 8 -14 0 -14 -11 0 -5 -54 11 -80 5 -10 6 -4 2 15
-4 23 -3 26 5 15 6 -8 11 -22 11 -31 0 -9 14 -22 31 -29 54 -23 110 26 95 85
-7 28 -41 46 -91 50 -45 4 -49 4 -42 12 4 3 -1 11 -10 18 -13 10 -5 12 46 14
59 2 64 0 97 -33z m-3376 -35 l0 -61 -1745 0 c-960 0 -1745 3 -1745 6 0 3 9
18 20 34 11 15 24 39 29 52 l9 25 1716 2 1716 2 0 -60z m1489 10 c33 -25 40
-26 163 -25 l128 1 0 -143 0 -144 -35 0 -35 0 0 104 c0 85 -3 105 -16 110 -9
3 -53 6 -98 6 l-82 0 -48 49 c-33 34 -47 55 -42 66 6 18 12 16 65 -24z m632
-1 c30 -17 46 -60 41 -113 -3 -36 -8 -47 -18 -43 -8 3 -14 1 -14 -5 0 -6 -4
-7 -10 -4 -18 11 -11 -4 12 -25 12 -11 17 -20 12 -20 -6 0 -15 5 -20 10 -7 7
-21 7 -42 -1 -37 -13 -90 1 -117 31 -10 11 -20 42 -23 69 -4 46 -2 53 26 81
26 26 38 30 82 30 28 0 60 -5 71 -10z m-1151 -24 c0 -3 -4 -8 -10 -11 -5 -3
-10 -1 -10 4 0 6 5 11 10 11 6 0 10 -2 10 -4z m20 -26 c0 -5 -2 -10 -4 -10 -3
0 -8 5 -11 10 -3 6 -1 10 4 10 6 0 11 -4 11 -10z m16 -48 c-7 -7 -46 9 -46 18
0 5 11 4 25 -2 14 -6 23 -13 21 -16z m1587 15 c13 12 37 -20 32 -41 -5 -17 -4
-18 4 -6 9 13 14 11 35 -10 l26 -25 -28 -1 c-15 -1 -21 1 -14 3 19 7 14 25 -6
19 -13 -4 -28 5 -50 29 -32 35 -43 57 -19 36 8 -6 17 -8 20 -4z m-1527 -107
c0 -16 -3 -30 -8 -30 -4 0 -8 14 -8 30 0 17 4 30 8 30 5 0 8 -13 8 -30z m-49
-12 c-3 -7 -5 -2 -5 12 0 14 2 19 5 13 2 -7 2 -19 0 -25z m-1017 -58 l0 -60
-1820 0 c-1001 0 -1820 3 -1820 6 0 3 8 18 18 32 10 15 24 39 32 55 l13 27
1789 0 1788 0 0 -60z m1017 18 c-3 -8 -6 -5 -6 6 -1 11 2 17 5 13 3 -3 4 -12
1 -19z m1167 11 c-2 -4 0 -10 6 -14 5 -3 10 -1 10 5 0 6 11 4 25 -6 24 -16 25
-16 19 2 -5 13 5 7 30 -16 55 -52 37 -87 -26 -51 -16 8 -44 32 -63 53 -29 30
-32 37 -16 35 11 0 18 -4 15 -8z m676 -71 c0 -4 -18 -8 -41 -8 -28 0 -38 4
-33 12 4 7 3 8 -5 4 -6 -4 -18 0 -27 9 -25 25 -10 28 30 6 28 -16 36 -18 36
-7 0 8 -7 21 -15 30 -8 8 -15 18 -15 22 0 4 16 -7 35 -26 19 -19 35 -38 35
-42z m-1790 58 c0 -3 -4 -8 -10 -11 -5 -3 -10 -1 -10 4 0 6 5 11 10 11 6 0 10
-2 10 -4z m2400 -44 c0 -5 -9 -8 -20 -7 -29 2 -33 10 -5 13 14 1 25 -2 25 -6z"/>
<path d="M6332 6884 c-25 -17 -31 -75 -9 -91 29 -24 64 -23 91 2 30 28 33 51
10 83 -18 26 -59 29 -92 6z"/>
<path d="M6300 6784 c0 -6 5 -15 12 -22 15 -15 52 -16 43 -1 -4 6 -10 8 -13 5
-3 -3 -14 1 -24 11 -10 9 -18 12 -18 7z"/>
<path d="M6370 6751 c0 -5 9 -7 20 -4 11 3 20 7 20 9 0 2 -9 4 -20 4 -11 0
-20 -4 -20 -9z"/>
<path d="M6626 7034 c-25 -24 -20 -71 8 -90 52 -33 107 28 76 86 -13 24 -61
27 -84 4z"/>
<path d="M6621 6914 c0 -11 3 -14 6 -6 3 7 2 16 -1 19 -3 4 -6 -2 -5 -13z"/>
<path d="M6650 6910 c0 -5 5 -10 10 -10 6 0 10 5 10 10 0 6 -4 10 -10 10 -5 0
-10 -4 -10 -10z"/>
<path d="M6685 6910 c-3 -6 1 -7 9 -4 18 7 21 14 7 14 -6 0 -13 -4 -16 -10z"/>
<path d="M6960 7046 c0 -22 3 -27 11 -19 8 8 8 16 0 30 -9 16 -10 14 -11 -11z"/>
<path d="M7212 6600 c-15 -25 -4 -27 14 -2 8 10 13 12 14 5 0 -7 5 -13 11 -13
8 0 8 5 -1 15 -16 20 -23 19 -38 -5z"/>
<path d="M7164 6549 c-5 -8 -3 -9 6 -4 7 4 16 2 22 -6 8 -12 9 -12 6 0 -6 20
-24 25 -34 10z"/>
<path d="M7540 6135 c-7 -9 -8 -15 -2 -15 5 0 12 7 16 15 3 8 4 15 2 15 -2 0
-9 -7 -16 -15z"/>
<path d="M6060 5954 c-402 -37 -717 -157 -1110 -425 -243 -166 -609 -480 -610
-526 0 -20 282 -281 404 -373 336 -255 584 -393 893 -496 253 -84 555 -114
823 -80 168 22 226 35 376 86 362 124 730 362 1067 690 175 169 177 172 115
241 -89 100 -392 349 -563 463 -131 88 -147 98 -335 191 -228 114 -402 172
-630 210 -94 16 -344 27 -430 19z m-20 -274 c0 -9 57 -40 62 -34 3 2 18 -1 34
-7 40 -17 74 -18 74 -2 0 7 5 13 10 13 6 0 11 -28 11 -62 1 -35 3 -74 5 -88
12 -76 13 -75 -35 -72 -35 2 -111 -19 -111 -31 0 -2 9 -20 20 -42 26 -52 25
-85 -5 -144 -44 -87 -117 -124 -200 -101 -26 7 -62 24 -81 36 -19 13 -34 19
-34 14 0 -6 4 -10 9 -10 5 0 6 -15 3 -32 -4 -18 -7 -69 -7 -113 1 -68 5 -89
30 -140 30 -59 136 -175 160 -175 7 0 18 -7 25 -14 6 -8 26 -19 43 -24 18 -6
59 -18 92 -28 51 -15 69 -16 124 -6 78 13 201 74 231 114 11 15 28 28 37 28 9
0 13 3 10 6 -4 4 4 28 18 53 13 25 29 58 34 73 l10 28 76 -7 c53 -4 75 -3 75
6 0 6 6 11 13 11 6 0 -1 -12 -16 -25 -21 -18 -40 -25 -75 -26 -26 -1 -38 -4
-27 -6 25 -7 38 -25 23 -34 -6 -4 22 -17 63 -29 41 -12 80 -23 87 -26 6 -2 12
-9 12 -15 0 -8 -13 -9 -42 -5 -126 20 -125 20 -100 2 26 -20 28 -38 7 -56 -12
-10 -18 -10 -30 0 -9 7 -18 10 -21 7 -5 -5 30 -29 131 -93 43 -26 9 -31 -42
-6 -70 35 -114 37 -81 4 7 -7 8 -12 2 -13 -41 -3 -80 -11 -87 -18 -5 -5 26
-26 67 -47 70 -36 92 -54 66 -54 -6 0 -50 18 -98 41 -110 52 -132 60 -132 51
0 -4 13 -13 29 -20 34 -15 46 -38 24 -46 -11 -4 -14 -2 -9 9 3 9 0 15 -9 15
-8 0 -15 4 -15 10 0 5 -7 7 -15 4 -11 -5 -13 -10 -5 -19 11 -13 -6 -38 -32
-48 -10 -4 -11 -7 0 -18 10 -11 12 -10 12 4 0 9 5 17 10 17 6 0 10 -6 10 -14
0 -16 -27 -29 -41 -20 -5 3 -9 0 -9 -6 0 -7 -7 -10 -15 -6 -8 3 -15 1 -15 -4
0 -5 -7 -16 -16 -25 -15 -14 -18 -14 -40 10 -20 21 -27 24 -44 15 -11 -6 -20
-15 -20 -21 0 -6 -5 -7 -10 -4 -6 4 -8 11 -5 16 4 5 -4 5 -19 -1 -25 -9 -43 1
-32 18 2 4 0 14 -5 22 -7 10 -9 -14 -7 -77 5 -108 -6 -119 -44 -45 -14 26 -31
46 -37 44 -7 -1 -15 7 -18 18 -8 30 -23 24 -23 -9 0 -47 -12 -92 -23 -88 -6 2
-10 27 -8 60 2 56 2 58 -22 53 -14 -2 -36 2 -50 9 -24 12 -26 11 -46 -31 -15
-29 -27 -41 -36 -37 -18 6 -19 15 -5 29 6 6 15 26 20 45 9 31 8 32 -5 15 -8
-11 -15 -24 -15 -28 0 -5 -6 -3 -14 4 -8 7 -12 16 -9 21 2 4 -1 7 -6 7 -6 0
-11 -4 -11 -10 0 -5 -7 -10 -15 -10 -18 0 -20 16 -2 23 9 3 8 9 -4 22 -15 15
-17 14 -36 -15 -28 -44 -39 -21 -13 27 11 21 20 45 19 53 0 9 -4 6 -9 -7 -5
-13 -11 -23 -14 -23 -4 0 -1 47 5 69 2 7 -3 16 -11 18 -12 4 -12 3 -1 -5 7 -5
9 -12 4 -15 -6 -4 -16 4 -23 18 -11 20 -16 22 -36 13 -18 -9 -29 -7 -51 7 -15
10 -23 20 -16 22 6 2 9 12 6 22 -3 11 3 24 14 32 24 19 27 39 5 39 -9 0 -39
-7 -66 -15 -26 -8 -52 -12 -57 -9 -14 8 -10 24 5 24 8 0 18 5 22 11 5 8 0 10
-17 6 -21 -5 -26 -1 -37 31 -17 51 -22 82 -28 198 -10 166 40 322 149 471 67
90 193 183 268 197 13 2 40 11 59 19 35 14 70 18 70 7z m420 -15 c10 -12 10
-15 -3 -15 -9 0 -19 5 -23 11 -10 17 -28 -6 -20 -26 4 -12 13 -15 31 -11 33 8
33 -11 0 -26 -34 -15 -97 9 -71 27 9 7 16 19 16 27 0 8 3 18 7 21 12 12 50 7
63 -8z m-887 -40 c-91 -80 -179 -232 -217 -375 -11 -38 -20 -119 -23 -195 -8
-205 33 -356 143 -519 55 -84 106 -141 162 -184 18 -14 31 -27 28 -29 -2 -2
-26 5 -53 16 -26 11 -93 38 -148 59 -272 108 -486 254 -786 536 l-83 78 79 75
c44 41 112 100 150 131 39 31 90 72 115 92 63 51 334 214 427 257 72 33 242
102 253 103 2 0 -19 -20 -47 -45z m1530 -99 c75 -37 165 -86 200 -110 264
-181 299 -209 291 -234 -4 -12 -3 -13 3 -4 16 22 123 -65 108 -88 -3 -5 -13
-10 -21 -10 -8 0 -14 -7 -14 -15 0 -9 -10 -15 -22 -16 -13 -1 -4 -5 19 -10 23
-4 56 -4 73 1 25 7 32 5 44 -12 12 -17 12 -23 2 -33 -7 -8 -19 -13 -27 -13 -8
1 -30 0 -49 0 -27 -2 -31 -5 -22 -14 10 -10 5 -15 -24 -23 -38 -11 -47 -28
-15 -33 40 -6 35 -35 -14 -79 -26 -24 -51 -40 -56 -37 -5 3 -8 1 -7 -4 5 -16
-124 -114 -133 -101 -5 8 -8 4 -11 -11 -3 -21 -108 -108 -132 -109 -6 -1 -19
-10 -30 -20 -36 -34 -312 -169 -416 -205 -74 -26 -77 -19 -17 35 113 101 211
274 242 428 26 126 17 317 -20 431 -48 152 -139 308 -219 378 -20 17 -36 33
-36 36 0 8 168 -63 303 -128z m-801 49 l-4 -51 53 -2 c56 -2 68 -7 53 -21 -5
-5 -32 -6 -61 -2 l-52 7 -3 -40 c-2 -22 -9 -41 -16 -44 -10 -3 -12 15 -8 80 2
45 5 93 5 106 1 17 6 22 19 20 14 -3 16 -12 14 -53z m308 1 c0 -21 -50 -91
-93 -131 -14 -14 23 47 40 63 7 7 17 31 23 52 12 44 30 54 30 16z m-203 -28
c-3 -8 -6 -5 -6 6 -1 11 2 17 5 13 3 -3 4 -12 1 -19z m309 -50 c4 -6 2 -14 -4
-16 -7 -2 -12 -8 -12 -14 0 -7 5 -6 14 1 11 9 16 9 21 1 4 -7 3 -15 -1 -19
-57 -47 -104 -81 -112 -81 -5 0 -12 10 -16 23 -7 28 20 53 41 36 10 -9 13 -8
13 5 0 22 28 76 40 76 5 0 12 -5 16 -12z m-320 -73 c7 -30 1 -40 -19 -32 -10
3 -13 15 -10 31 7 33 21 33 29 1z m128 -43 c-10 -44 -24 -50 -24 -11 0 38 7
52 21 43 5 -3 6 -17 3 -32z m162 -67 c14 -25 24 -51 21 -59 -3 -8 -24 -24 -46
-37 -39 -22 -53 -39 -31 -39 7 0 7 -7 -1 -21 -9 -17 -8 -23 2 -30 17 -10 35
-6 124 35 69 30 70 31 61 59 -7 19 -7 33 0 44 21 34 32 25 27 -21 -5 -37 -2
-47 12 -52 10 -4 21 -1 26 7 7 11 9 11 9 -2 0 -20 -20 -29 -61 -29 -26 0 -169
-82 -169 -97 0 -3 11 -2 25 1 18 5 24 3 23 -6 -2 -7 -14 -16 -28 -19 -18 -5
-9 -7 30 -10 30 -1 62 -3 70 -5 8 -1 28 -2 43 -3 16 -1 26 -5 22 -11 -4 -6
-54 -10 -117 -10 l-110 0 4 25 c3 14 2 28 -2 30 -4 3 -11 29 -14 58 -4 29 -14
66 -21 81 -18 35 -19 57 -2 34 12 -15 16 -15 56 3 39 17 43 22 36 46 -3 14
-12 35 -19 45 -13 17 -16 16 -60 -25 -25 -24 -46 -39 -46 -32 0 18 71 85 91
85 11 0 29 -18 45 -45z m174 -220 c0 -8 -4 -15 -10 -15 -5 0 -10 7 -10 15 0 8
5 15 10 15 6 0 10 -7 10 -15z m60 -65 c0 -5 -7 -10 -16 -10 -8 0 -12 5 -9 10
3 6 10 10 16 10 5 0 9 -4 9 -10z m-160 -75 c-3 -5 -30 -8 -61 -7 -34 2 -59 -1
-64 -7 -3 -6 -11 -9 -16 -5 -6 4 -5 11 2 20 14 17 148 16 139 -1z m-30 -116
c0 -5 -7 -9 -15 -9 -15 0 -20 12 -9 23 8 8 24 -1 24 -14z m165 -79 c3 -6 -1
-13 -10 -16 -19 -8 -30 0 -20 15 8 14 22 14 30 1z m-1203 -193 c-12 -13 -19
-28 -15 -33 4 -5 -1 -1 -12 10 -12 11 -16 20 -9 23 6 2 20 10 30 18 28 20 31
9 6 -18z m622 -153 c3 -8 2 -12 -4 -9 -6 3 -10 10 -10 16 0 14 7 11 14 -7z"/>
<path d="M6625 4850 c-3 -5 -1 -10 4 -10 6 0 11 5 11 10 0 6 -2 10 -4 10 -3 0
-8 -4 -11 -10z"/>
<path d="M6648 4783 c7 -3 16 -2 19 1 4 3 -2 6 -13 5 -11 0 -14 -3 -6 -6z"/>
<path d="M5590 4760 c0 -5 5 -10 11 -10 5 0 7 5 4 10 -3 6 -8 10 -11 10 -2 0
-4 -4 -4 -10z"/>
<path d="M6370 4430 c-8 -5 -12 -12 -9 -15 4 -3 12 1 19 10 14 17 11 19 -10 5z"/>
<path d="M7410 5305 c0 -8 4 -15 10 -15 5 0 7 7 4 15 -4 8 -8 15 -10 15 -2 0
-4 -7 -4 -15z"/>
<path d="M7645 4960 c4 -6 11 -8 16 -5 14 9 11 15 -7 15 -8 0 -12 -5 -9 -10z"/>
<path d="M7420 4761 c0 -6 4 -13 10 -16 6 -3 7 1 4 9 -7 18 -14 21 -14 7z"/>
<path d="M8345 4668 c-11 -6 -21 -11 -21 -12 -1 -1 -4 -10 -8 -22 -8 -26 26
-64 59 -64 24 0 55 32 55 57 0 17 -36 53 -52 53 -7 0 -22 -6 -33 -12z"/>
<path d="M8208 4053 c7 -3 16 -2 19 1 4 3 -2 6 -13 5 -11 0 -14 -3 -6 -6z"/>
<path d="M7960 3866 c0 -2 8 -10 18 -17 15 -13 16 -12 3 4 -13 16 -21 21 -21
13z"/>
<path d="M8055 3779 c-28 -6 -28 -7 -5 -9 23 -2 100 -2 204 -1 22 1 37 3 34 6
-8 8 -199 11 -233 4z"/>
<path d="M8308 3773 c7 -3 16 -2 19 1 4 3 -2 6 -13 5 -11 0 -14 -3 -6 -6z"/>
<path d="M9028 3773 c7 -3 16 -2 19 1 4 3 -2 6 -13 5 -11 0 -14 -3 -6 -6z"/>
<path d="M7447 3949 c7 -7 15 -10 18 -7 3 3 -2 9 -12 12 -14 6 -15 5 -6 -5z"/>
<path d="M7500 3930 c0 -5 5 -10 11 -10 5 0 7 5 4 10 -3 6 -8 10 -11 10 -2 0
-4 -4 -4 -10z"/>
<path d="M7507 3892 c3 -7 12 -11 20 -8 8 3 17 6 19 6 2 0 4 4 4 10 0 5 -11 9
-24 8 -15 -1 -22 -7 -19 -16z"/>
<path d="M7552 3871 c-10 -6 -7 -10 11 -13 18 -4 24 -1 20 9 -6 15 -13 16 -31
4z"/>
<path d="M7215 3820 c3 -5 8 -10 11 -10 2 0 4 5 4 10 0 6 -5 10 -11 10 -5 0
-7 -4 -4 -10z"/>
<path d="M7280 3758 c40 -39 63 -51 39 -21 -12 15 -12 16 4 10 21 -8 22 -1 3
19 -19 18 -30 18 -22 -1 3 -8 1 -15 -4 -15 -8 0 -14 19 -12 41 0 3 -10 5 -24
5 -23 0 -22 -2 16 -38z"/>
<path d="M7480 3568 c14 -16 23 -19 31 -11 8 8 7 13 -2 18 -8 5 -10 4 -5 -3 4
-7 3 -12 -2 -12 -6 0 -12 7 -16 15 -3 8 -10 15 -16 15 -6 0 -2 -10 10 -22z"/>
<path d="M7511 2754 c0 -11 3 -14 6 -6 3 7 2 16 -1 19 -3 4 -6 -2 -5 -13z"/>
<path d="M6920 3735 c0 -9 6 -12 15 -9 8 4 12 10 9 15 -8 14 -24 10 -24 -6z"/>
<path d="M6705 3690 c3 -5 8 -10 11 -10 2 0 4 5 4 10 0 6 -5 10 -11 10 -5 0
-7 -4 -4 -10z"/>
<path d="M6800 3553 c0 -21 -4 -55 -9 -75 -7 -29 -6 -38 4 -38 9 0 13 22 14
75 1 41 -1 75 -4 75 -3 0 -5 -17 -5 -37z"/>
<path d="M6979 3054 c-1 -73 -1 -309 1 -349 1 -27 4 -34 8 -22 8 19 5 397 -3
405 -3 3 -5 -12 -6 -34z"/>
<path d="M6432 3280 c0 -19 2 -27 5 -17 2 9 2 25 0 35 -3 9 -5 1 -5 -18z"/>
<path d="M6431 2684 c0 -11 3 -14 6 -6 3 7 2 16 -1 19 -3 4 -6 -2 -5 -13z"/>
<path d="M8485 3516 c-50 -50 11 -110 76 -76 26 15 24 46 -6 75 -30 31 -40 31
-70 1z"/>
<path d="M7985 3499 c-24 -9 -21 -11 27 -14 20 -1 35 2 33 5 -8 13 -39 17 -60
9z"/>
<path d="M8920 3134 c0 -8 5 -12 10 -9 6 4 8 11 5 16 -9 14 -15 11 -15 -7z"/>
<path d="M9100 2964 c0 -14 3 -14 15 -4 8 7 15 14 15 16 0 2 -7 4 -15 4 -8 0
-15 -7 -15 -16z"/>
<path d="M7224 3500 c-12 -5 -25 -13 -29 -19 -3 -6 -9 -9 -13 -7 -4 2 -7 -11
-7 -29 0 -18 2 -31 4 -29 2 2 11 -2 20 -9 29 -25 49 -26 75 -6 33 26 35 72 4
93 -25 18 -25 18 -54 6z"/>
<path d="M7324 3449 c0 -10 4 -19 8 -19 4 0 8 6 8 14 0 8 -4 17 -8 20 -4 2 -8
-4 -8 -15z"/>
<path d="M7150 3421 c0 -21 29 -56 38 -46 3 3 -3 11 -13 19 -11 8 -16 20 -12
30 4 9 2 16 -3 16 -6 0 -10 -9 -10 -19z"/>
<path d="M8135 3180 c3 -5 8 -10 11 -10 2 0 4 5 4 10 0 6 -5 10 -11 10 -5 0
-7 -4 -4 -10z"/>
<path d="M8200 3178 c0 -8 18 -12 35 -8 6 2 25 2 43 1 17 -1 32 3 32 8 0 5
-25 8 -55 8 -30 -1 -55 -5 -55 -9z"/>
<path d="M8320 3180 c0 -12 8 -12 35 0 18 8 17 9 -7 9 -16 1 -28 -3 -28 -9z"/>
<path d="M6704 2780 c0 -58 1 -81 3 -52 2 28 2 76 0 105 -2 28 -3 5 -3 -53z"/>
<path d="M8222 2918 c-7 -7 -12 -27 -12 -45 0 -45 38 -65 78 -42 33 18 39 42
18 74 -18 27 -63 34 -84 13z"/>
<path d="M8440 2689 c0 -5 5 -7 10 -4 6 3 10 8 10 11 0 2 -4 4 -10 4 -5 0 -10
-5 -10 -11z"/>
<path d="M8835 1759 c-129 -4 -237 -11 -260 -18 -98 -31 -179 -111 -208 -205
-8 -28 -12 -121 -12 -291 0 -249 0 -250 26 -305 34 -71 70 -106 145 -142 83
-39 217 -50 579 -46 l280 3 3 94 c2 69 -1 97 -10 103 -7 4 -166 8 -353 8 -390
0 -393 1 -432 80 -21 41 -23 58 -23 220 0 162 2 179 23 220 15 32 34 51 62 65
37 19 64 20 388 23 l347 3 0 90 c0 63 -4 91 -12 94 -25 7 -328 10 -543 4z"/>
<path d="M11103 1761 c-79 -5 -96 -9 -115 -29 l-23 -23 -3 -462 c-1 -286 2
-468 8 -477 12 -20 173 -28 195 -10 13 11 15 71 15 402 0 363 1 389 17 386 10
-2 49 -48 88 -103 254 -364 474 -661 500 -677 25 -15 51 -18 145 -18 141 0
153 3 174 43 15 29 17 80 14 497 l-3 465 -100 0 -100 0 -5 -389 c-4 -280 -8
-390 -16 -393 -12 -4 -34 25 -351 469 -216 302 -230 318 -283 318 -21 0 -44 1
-52 3 -7 2 -55 1 -105 -2z"/>
<path d="M267 1754 c-4 -4 -7 -227 -7 -494 0 -406 2 -490 14 -499 9 -8 47 -11
107 -9 l94 3 5 215 5 215 144 3 144 3 57 -58 c30 -32 99 -121 153 -199 138
-199 118 -184 245 -184 59 0 113 4 120 8 14 9 2 28 -167 257 -57 77 -128 168
-157 202 -30 33 -54 64 -54 68 0 3 31 43 68 88 105 126 292 368 292 378 0 5
-54 9 -120 9 -138 0 -129 5 -222 -130 -91 -133 -178 -240 -209 -255 -23 -12
-58 -15 -162 -13 l-132 3 -5 195 -5 195 -101 3 c-55 1 -103 0 -107 -4z"/>
<path d="M1961 1733 c-26 -27 -77 -120 -276 -508 -54 -104 -129 -250 -167
-323 -38 -73 -66 -137 -63 -142 3 -6 52 -10 110 -10 97 0 105 1 122 24 10 13
106 197 213 410 107 212 200 386 206 386 19 0 30 -18 170 -287 199 -378 274
-512 294 -523 10 -6 62 -10 115 -10 76 0 97 3 101 15 4 8 -12 45 -33 83 -22
37 -107 191 -188 342 -243 451 -285 524 -311 548 -23 20 -35 22 -145 22 -118
0 -121 -1 -148 -27z"/>
<path d="M2950 1261 c0 -446 2 -500 16 -505 20 -8 168 -8 188 0 14 5 16 58 16
489 0 266 -3 490 -6 499 -5 13 -25 16 -110 16 l-104 0 0 -499z"/>
<path d="M3407 1753 c-4 -3 -7 -41 -7 -84 0 -67 3 -80 19 -89 13 -6 155 -10
395 -10 l374 0 31 -25 c40 -35 51 -114 27 -192 -28 -89 -11 -86 -439 -84 -291
2 -376 -1 -389 -11 -16 -12 -18 -37 -18 -250 -1 -131 2 -242 5 -248 9 -15 188
-13 203 2 8 8 12 59 12 165 l0 153 213 0 c250 0 209 21 342 -175 48 -71 95
-136 103 -142 19 -15 209 -18 231 -4 17 11 16 12 -134 215 -53 71 -94 133 -92
139 2 6 17 15 33 21 65 23 103 57 131 114 26 54 28 65 28 187 0 122 -2 134
-28 186 -33 67 -78 102 -162 124 -49 12 -131 15 -465 15 -224 0 -410 -3 -413
-7z"/>
<path d="M4902 1745 c-103 -29 -158 -74 -201 -165 -26 -55 -26 -56 -26 -320
l0 -265 28 -60 c34 -73 59 -100 117 -130 90 -45 136 -50 460 -50 267 0 312 2
365 18 135 41 191 101 220 233 14 59 16 114 13 286 -5 260 -14 296 -91 372
-90 88 -99 90 -492 93 -272 2 -351 -1 -393 -12z m677 -200 c72 -43 76 -54 79
-271 3 -182 2 -198 -18 -239 -37 -77 -52 -80 -365 -80 -393 0 -385 -6 -385
305 0 176 2 198 20 227 23 39 60 64 108 74 21 4 147 7 282 6 225 -2 248 -4
279 -22z"/>
<path d="M7270 1740 c-107 -37 -150 -114 -150 -270 0 -113 16 -167 64 -214 64
-65 83 -68 429 -73 363 -6 348 -2 355 -105 4 -58 1 -68 -21 -94 l-25 -29 -394
-5 -393 -5 -3 -92 -3 -93 424 0 c467 0 496 3 561 60 58 51 70 89 70 225 1 77
-4 134 -13 158 -20 59 -65 103 -127 127 -50 18 -77 20 -340 20 -325 0 -346 4
-362 64 -13 47 -4 110 20 135 23 25 11 24 426 21 236 -2 316 1 327 10 11 9 15
32 15 80 0 111 43 100 -409 100 -362 -1 -401 -2 -451 -20z"/>
<path d="M10008 1741 c-14 -11 -53 -75 -87 -143 -271 -530 -339 -663 -378
-736 -25 -46 -42 -90 -39 -98 4 -11 28 -14 103 -14 54 0 105 4 113 10 8 5 104
188 215 407 118 235 206 399 215 401 11 2 29 -24 58 -80 39 -77 66 -130 246
-473 105 -199 128 -239 144 -252 23 -19 211 -18 218 1 4 11 -203 410 -433 836
-86 159 -88 160 -241 160 -93 0 -113 -3 -134 -19z"/>
</g>
</svg>
